<svg width="260" height="59" viewBox="0 0 260 59" fill="none" xmlns="http://www.w3.org/2000/svg">
<path d="M84.8606 33.7002C84.6901 33.7002 84.5265 33.768 84.406 33.8886C84.2854 34.0092 84.2176 34.1727 84.2176 34.3432V44.0222C84.2176 46.0672 84.2656 47.4942 84.8366 48.4452C85.1324 48.9104 85.5302 49.3022 86 49.5907C86.4697 49.8792 86.999 50.0568 87.5476 50.1102C88.7222 50.1881 89.9013 50.1684 91.0726 50.0512C91.162 50.042 91.2523 50.0516 91.3377 50.0795C91.4231 50.1073 91.5017 50.1528 91.5684 50.2129C91.6351 50.273 91.6885 50.3465 91.7251 50.4286C91.7616 50.5106 91.7805 50.5994 91.7806 50.6892V54.4002C91.7811 54.5476 91.7309 54.6906 91.6384 54.8054C91.5459 54.9201 91.4168 54.9995 91.2726 55.0302C89.1177 55.4646 86.8987 55.4727 84.7406 55.0542C83.6788 54.8629 82.6722 54.4397 81.7926 53.8149C80.913 53.19 80.1819 52.3789 79.6516 51.4392C78.6056 49.4392 78.5096 47.1102 78.5096 44.3992V34.3432C78.5096 34.1727 78.4419 34.0092 78.3213 33.8886C78.2007 33.768 78.0372 33.7002 77.8666 33.7002H74.4916C74.4072 33.7002 74.3236 33.6836 74.2456 33.6513C74.1676 33.619 74.0967 33.5716 74.037 33.5119C73.9773 33.4522 73.9299 33.3813 73.8976 33.3033C73.8653 33.2253 73.8486 33.1417 73.8486 33.0572V29.8722C73.8486 29.7878 73.8653 29.7042 73.8976 29.6262C73.9299 29.5482 73.9773 29.4773 74.037 29.4176C74.0967 29.3579 74.1676 29.3105 74.2456 29.2782C74.3236 29.2459 74.4072 29.2292 74.4916 29.2292H77.8666C78.0372 29.2292 78.2007 29.1615 78.3213 29.0409C78.4419 28.9203 78.5096 28.7568 78.5096 28.5862V22.7372C78.5096 22.5667 78.5774 22.4032 78.698 22.2826C78.8185 22.162 78.9821 22.0942 79.1526 22.0942H83.5746C83.7452 22.0942 83.9087 22.162 84.0293 22.2826C84.1499 22.4032 84.2176 22.5667 84.2176 22.7372V28.5862C84.2176 28.6707 84.2343 28.7543 84.2666 28.8323C84.2989 28.9103 84.3463 28.9812 84.406 29.0409C84.4657 29.1006 84.5366 29.148 84.6146 29.1803C84.6926 29.2126 84.7762 29.2292 84.8606 29.2292H91.1376C91.3082 29.2292 91.4717 29.297 91.5923 29.4176C91.7129 29.5382 91.7806 29.7017 91.7806 29.8722V33.0572C91.7806 33.2278 91.7129 33.3913 91.5923 33.5119C91.4717 33.6325 91.3082 33.7002 91.1376 33.7002H84.8606Z" fill="white"/>
<path d="M113.517 54.2714V53.2064C113.518 53.0799 113.481 52.9562 113.412 52.8505C113.342 52.7447 113.243 52.6618 113.127 52.6118C113.011 52.5618 112.883 52.5471 112.758 52.5694C112.634 52.5917 112.519 52.6501 112.427 52.7374C110.217 54.8934 107.802 55.6274 104.337 55.6274C99.2003 55.6274 95.8703 52.5364 95.8703 47.7274C95.7603 46.1868 96.1375 44.6506 96.9484 43.3361C97.7594 42.0216 98.9631 40.9953 100.389 40.4024C103.439 39.0124 108.308 38.4684 112.123 37.9314C112.215 37.9186 112.302 37.8862 112.38 37.8365C112.458 37.7868 112.525 37.7209 112.575 37.6433C112.625 37.5657 112.658 37.4782 112.671 37.3868C112.685 37.2953 112.678 37.2021 112.652 37.1134C112.073 35.1194 110.286 33.9344 107.429 33.9344C105.16 33.8834 102.953 34.677 101.236 36.1614C101.109 36.2723 100.943 36.3287 100.775 36.3185C100.607 36.3082 100.449 36.232 100.336 36.1064L97.8023 33.2514C97.6909 33.1253 97.633 32.9609 97.6409 32.7929C97.6487 32.6248 97.7216 32.4665 97.8443 32.3514C99.1822 31.0758 100.761 30.0796 102.488 29.421C104.215 28.7623 106.057 28.4545 107.904 28.5154C110.586 28.546 113.174 29.5039 115.229 31.2264C117.703 33.3194 118.511 36.2714 118.511 39.4554V54.2714C118.511 54.4419 118.444 54.6054 118.323 54.726C118.202 54.8466 118.039 54.9144 117.868 54.9144H114.16C113.99 54.9144 113.826 54.8466 113.706 54.726C113.585 54.6054 113.517 54.4419 113.517 54.2714ZM112.849 43.1254C112.85 43.0311 112.83 42.9379 112.791 42.8522C112.752 42.7666 112.694 42.6906 112.622 42.6296C112.55 42.5687 112.466 42.5242 112.375 42.4995C112.284 42.4747 112.189 42.4702 112.096 42.4864C110.041 42.8434 107.752 43.2714 105.764 43.7364C103.481 44.2124 101.531 45.3064 101.531 47.3034C101.531 49.3494 103.291 50.8234 105.669 50.8234C106.913 50.8543 108.145 50.5642 109.244 49.9811C110.344 49.3981 111.275 48.5416 111.947 47.4944C112.63 46.1439 112.941 44.6358 112.847 43.1254" fill="white"/>
<path d="M149.38 42.0712C149.51 45.4708 148.469 48.8118 146.431 51.5362C145.341 52.8302 143.978 53.8676 142.44 54.5748C140.903 55.2819 139.228 55.6412 137.536 55.6272C135.145 55.6875 132.791 55.0276 130.78 53.7332C130.683 53.6693 130.571 53.6329 130.455 53.6279C130.339 53.6228 130.224 53.6493 130.122 53.7046C130.02 53.7598 129.935 53.8416 129.876 53.9414C129.817 54.0412 129.786 54.1552 129.786 54.2712C129.786 54.3557 129.77 54.4393 129.737 54.5173C129.705 54.5953 129.658 54.6662 129.598 54.7259C129.538 54.7856 129.467 54.833 129.389 54.8653C129.311 54.8976 129.228 54.9142 129.143 54.9142H125.343C125.259 54.9142 125.175 54.8976 125.097 54.8653C125.019 54.833 124.948 54.7856 124.889 54.7259C124.829 54.6662 124.781 54.5953 124.749 54.5173C124.717 54.4393 124.7 54.3557 124.7 54.2712V21.3102C124.7 21.1397 124.768 20.9762 124.889 20.8556C125.009 20.735 125.173 20.6672 125.343 20.6672H129.812C129.983 20.6672 130.146 20.735 130.267 20.8556C130.387 20.9762 130.455 21.1397 130.455 21.3102V29.5052C130.455 29.6172 130.484 29.7273 130.54 29.8245C130.595 29.9217 130.675 30.0027 130.772 30.0594C130.869 30.116 130.978 30.1464 131.09 30.1474C131.202 30.1484 131.313 30.1201 131.41 30.0652C133.226 29.0492 135.272 28.5155 137.352 28.5152C139.075 28.4749 140.785 28.8214 142.356 29.5295C143.928 30.2375 145.32 31.2889 146.431 32.6062C148.434 35.3485 149.471 38.677 149.38 42.0712ZM143.292 42.0712C143.393 39.9814 142.863 37.9097 141.77 36.1252C141.177 35.294 140.379 34.6297 139.454 34.1965C138.53 33.7633 137.509 33.5759 136.49 33.6522C135.58 33.6109 134.673 33.773 133.833 34.1268C132.994 34.4805 132.244 35.017 131.638 35.6972C130.327 37.5562 129.674 39.7991 129.78 42.0712C129.78 44.4972 130.351 46.9232 131.635 48.3972C132.27 49.0967 133.051 49.6471 133.923 50.0089C134.795 50.3708 135.737 50.5352 136.68 50.4902C137.682 50.5407 138.68 50.3411 139.585 49.9094C140.491 49.4776 141.274 48.8274 141.865 48.0172C142.919 46.2202 143.416 44.1508 143.292 42.0712Z" fill="white"/>
<path d="M160.557 48.1592C161.208 48.9623 162.037 49.6036 162.978 50.0327C163.918 50.4618 164.946 50.667 165.979 50.6322C167.312 50.6785 168.636 50.4102 169.846 49.849C171.055 49.2878 172.115 48.4496 172.94 47.4022C173.043 47.2844 173.186 47.2085 173.341 47.1889C173.496 47.1694 173.653 47.2076 173.782 47.2962L176.957 49.4592C177.028 49.5078 177.089 49.5702 177.136 49.6427C177.183 49.7152 177.214 49.7963 177.229 49.8813C177.244 49.9663 177.241 50.0533 177.222 50.1373C177.202 50.2213 177.166 50.3005 177.115 50.3702C175.874 52.0662 174.236 53.4321 172.344 54.3485C170.453 55.265 168.366 55.704 166.265 55.6272C162.457 55.6272 158.557 54.1522 156.276 51.3462C154.239 48.7973 153.147 45.622 153.184 42.3592C153.068 38.8947 154.161 35.4976 156.276 32.7512C157.481 31.374 158.975 30.2803 160.652 29.5485C162.329 28.8166 164.147 28.4648 165.976 28.5182C167.804 28.4745 169.619 28.8308 171.294 29.5619C172.97 30.2931 174.465 31.3816 175.676 32.7512C178.075 35.7938 179.173 39.6621 178.729 43.5112C178.717 43.6737 178.645 43.8257 178.526 43.9369C178.407 44.0482 178.25 44.1104 178.087 44.1112H159.836C159.741 44.1117 159.647 44.1333 159.561 44.1744C159.475 44.2156 159.399 44.2752 159.339 44.3491C159.279 44.423 159.236 44.5093 159.213 44.6018C159.19 44.6943 159.187 44.7908 159.206 44.8842C159.402 46.0642 159.864 47.1842 160.557 48.1592ZM160.557 35.9352C160.059 36.6196 159.681 37.3834 159.438 38.1942C159.409 38.2908 159.402 38.3929 159.42 38.4924C159.437 38.5919 159.477 38.6859 159.537 38.7669C159.598 38.848 159.676 38.9137 159.766 38.9589C159.857 39.0042 159.956 39.0275 160.057 39.0272H171.88C171.983 39.0267 172.084 39.0016 172.175 38.9542C172.266 38.9068 172.344 38.8384 172.404 38.7546C172.463 38.6708 172.502 38.5741 172.516 38.4725C172.531 38.3709 172.521 38.2673 172.487 38.1702C172.225 37.3727 171.844 36.6193 171.357 35.9352C170.719 35.1283 169.899 34.4835 168.965 34.0532C168.03 33.623 167.007 33.4195 165.979 33.4592C164.946 33.4249 163.918 33.6306 162.977 34.0602C162.037 34.4898 161.208 35.1316 160.557 35.9352Z" fill="white"/>
<path d="M192.165 33.7002C191.995 33.7002 191.831 33.768 191.711 33.8886C191.59 34.0092 191.522 34.1727 191.522 34.3432V44.0222C191.522 46.0672 191.57 47.4942 192.141 48.4452C192.437 48.9104 192.835 49.3022 193.305 49.5907C193.774 49.8792 194.304 50.0568 194.852 50.1102C196.027 50.1881 197.206 50.1684 198.377 50.0512C198.467 50.042 198.557 50.0516 198.642 50.0795C198.728 50.1073 198.806 50.1528 198.873 50.2129C198.94 50.273 198.993 50.3465 199.03 50.4286C199.066 50.5106 199.085 50.5994 199.085 50.6892V54.4002C199.086 54.5476 199.036 54.6908 198.943 54.8055C198.851 54.9203 198.722 54.9997 198.577 55.0302C196.422 55.4646 194.203 55.4727 192.045 55.0542C190.983 54.8629 189.977 54.4397 189.097 53.8149C188.218 53.19 187.487 52.3789 186.956 51.4392C185.91 49.4392 185.815 47.1102 185.815 44.3992V34.3432C185.815 34.1727 185.748 34.0092 185.627 33.8886C185.506 33.768 185.343 33.7002 185.172 33.7002H181.796C181.712 33.7002 181.628 33.6836 181.55 33.6513C181.472 33.619 181.401 33.5716 181.342 33.5119C181.282 33.4522 181.235 33.3813 181.202 33.3033C181.17 33.2253 181.153 33.1417 181.153 33.0572V29.8722C181.153 29.7878 181.17 29.7042 181.202 29.6262C181.235 29.5482 181.282 29.4773 181.342 29.4176C181.401 29.3579 181.472 29.3105 181.55 29.2782C181.628 29.2459 181.712 29.2292 181.796 29.2292H185.172C185.343 29.2292 185.506 29.1615 185.627 29.0409C185.748 28.9203 185.815 28.7568 185.815 28.5862V22.7372C185.815 22.6528 185.832 22.5693 185.864 22.4912C185.896 22.4132 185.943 22.3424 186.003 22.2826C186.063 22.2229 186.133 22.1755 186.211 22.1432C186.289 22.1109 186.373 22.0942 186.457 22.0942H190.879C191.05 22.0942 191.213 22.162 191.334 22.2826C191.455 22.4032 191.522 22.5667 191.522 22.7372V28.5862C191.522 28.6707 191.539 28.7543 191.571 28.8323C191.604 28.9103 191.651 28.9812 191.711 29.0409C191.77 29.1006 191.841 29.148 191.919 29.1803C191.997 29.2126 192.081 29.2292 192.165 29.2292H198.442C198.613 29.2292 198.776 29.297 198.897 29.4176C199.018 29.5382 199.085 29.7017 199.085 29.8722V33.0572C199.085 33.2278 199.018 33.3913 198.897 33.5119C198.776 33.6325 198.613 33.7002 198.442 33.7002H192.165Z" fill="white"/>
<path d="M220.822 54.2714V53.2064C220.822 53.0799 220.786 52.9562 220.716 52.8505C220.647 52.7447 220.548 52.6618 220.432 52.6118C220.316 52.5618 220.187 52.5471 220.063 52.5694C219.939 52.5917 219.823 52.6501 219.732 52.7374C217.522 54.8934 215.107 55.6274 211.642 55.6274C206.505 55.6274 203.175 52.5364 203.175 47.7274C203.065 46.1868 203.442 44.6506 204.253 43.3361C205.064 42.0216 206.268 40.9953 207.694 40.4024C210.744 39.0124 215.613 38.4684 219.428 37.9314C219.519 37.9184 219.607 37.8859 219.685 37.8362C219.763 37.7864 219.829 37.7206 219.879 37.643C219.929 37.5655 219.962 37.478 219.976 37.3867C219.989 37.2953 219.983 37.2021 219.957 37.1134C219.378 35.1194 217.591 33.9344 214.734 33.9344C212.465 33.8834 210.258 34.677 208.541 36.1614C208.414 36.2723 208.248 36.3287 208.08 36.3185C207.911 36.3082 207.754 36.232 207.641 36.1064L205.107 33.2514C204.996 33.1253 204.938 32.9609 204.946 32.7929C204.953 32.6248 205.026 32.4665 205.149 32.3514C206.487 31.0758 208.066 30.0796 209.793 29.421C211.52 28.7623 213.361 28.4545 215.209 28.5154C217.89 28.546 220.479 29.5039 222.534 31.2264C225.008 33.3194 225.816 36.2714 225.816 39.4554V54.2714C225.816 54.4419 225.748 54.6054 225.628 54.726C225.507 54.8466 225.343 54.9144 225.173 54.9144H221.465C221.294 54.9144 221.131 54.8466 221.01 54.726C220.89 54.6054 220.822 54.4419 220.822 54.2714ZM220.154 43.1254C220.155 43.0311 220.135 42.9379 220.096 42.8522C220.056 42.7666 219.999 42.6906 219.927 42.6296C219.855 42.5687 219.771 42.5242 219.68 42.4995C219.589 42.4747 219.494 42.4702 219.401 42.4864C217.346 42.8434 215.057 43.2714 213.069 43.7364C210.786 44.2124 208.836 45.3064 208.836 47.3034C208.836 49.3494 210.596 50.8234 212.974 50.8234C214.218 50.8543 215.449 50.5642 216.549 49.9811C217.649 49.3981 218.579 48.5416 219.252 47.4944C219.935 46.1439 220.246 44.6358 220.152 43.1254" fill="white"/>
<path d="M232 54.2713V20.5963C232 20.512 232.017 20.4284 232.049 20.3504C232.081 20.2725 232.129 20.2017 232.188 20.142C232.248 20.0824 232.319 20.0351 232.397 20.0029C232.475 19.9707 232.559 19.9542 232.643 19.9543H237.065C237.149 19.9542 237.233 19.9707 237.311 20.0029C237.389 20.0351 237.46 20.0824 237.52 20.142C237.579 20.2017 237.627 20.2725 237.659 20.3504C237.691 20.4284 237.708 20.512 237.708 20.5963V54.2713C237.708 54.4419 237.64 54.6054 237.52 54.726C237.399 54.8466 237.236 54.9143 237.065 54.9143H232.643C232.472 54.9143 232.309 54.8466 232.188 54.726C232.068 54.6054 232 54.4419 232 54.2713" fill="white"/>
<path d="M252.525 33.7002C252.354 33.7002 252.191 33.768 252.07 33.8886C251.949 34.0092 251.882 34.1727 251.882 34.3432V44.0222C251.882 46.0672 251.93 47.4942 252.501 48.4452C252.796 48.9104 253.194 49.3022 253.664 49.5907C254.134 49.8792 254.663 50.0568 255.212 50.1102C256.386 50.1881 257.565 50.1684 258.737 50.0512C258.826 50.042 258.916 50.0516 259.002 50.0795C259.087 50.1073 259.166 50.1528 259.232 50.2129C259.299 50.273 259.353 50.3465 259.389 50.4286C259.426 50.5106 259.445 50.5994 259.445 50.6892V54.4002C259.445 54.5476 259.395 54.6908 259.303 54.8055C259.21 54.9203 259.081 54.9997 258.937 55.0302C256.782 55.4646 254.563 55.4727 252.405 55.0542C251.343 54.8629 250.336 54.4397 249.457 53.8149C248.577 53.19 247.846 52.3789 247.316 51.4392C246.27 49.4392 246.175 47.1102 246.175 44.3992V34.3432C246.175 34.1727 246.107 34.0092 245.986 33.8886C245.866 33.768 245.702 33.7002 245.532 33.7002H242.156C242.071 33.7002 241.988 33.6836 241.91 33.6513C241.832 33.619 241.761 33.5716 241.701 33.5119C241.641 33.4522 241.594 33.3813 241.562 33.3033C241.529 33.2253 241.513 33.1417 241.513 33.0572V29.8722C241.513 29.7878 241.529 29.7042 241.562 29.6262C241.594 29.5482 241.641 29.4773 241.701 29.4176C241.761 29.3579 241.832 29.3105 241.91 29.2782C241.988 29.2459 242.071 29.2292 242.156 29.2292H245.532C245.702 29.2292 245.866 29.1615 245.986 29.0409C246.107 28.9203 246.175 28.7568 246.175 28.5862V22.7372C246.175 22.6528 246.191 22.5693 246.223 22.4912C246.255 22.4132 246.303 22.3424 246.362 22.2826C246.422 22.2229 246.493 22.1755 246.571 22.1432C246.649 22.1109 246.732 22.0942 246.817 22.0942H251.239C251.409 22.0942 251.573 22.162 251.693 22.2826C251.814 22.4032 251.882 22.5667 251.882 22.7372V28.5862C251.882 28.6707 251.898 28.7543 251.931 28.8323C251.963 28.9103 252.01 28.9812 252.07 29.0409C252.13 29.1006 252.201 29.148 252.279 29.1803C252.357 29.2126 252.44 29.2292 252.525 29.2292H258.802C258.972 29.2292 259.136 29.297 259.256 29.4176C259.377 29.5382 259.445 29.7017 259.445 29.8722V33.0572C259.445 33.2278 259.377 33.3913 259.256 33.5119C259.136 33.6325 258.972 33.7002 258.802 33.7002H252.525Z" fill="white"/>
<path d="M66.8103 55.6273H42.9883C42.7066 55.6275 42.4327 55.5348 42.2091 55.3634C41.9855 55.192 41.8248 54.9516 41.7518 54.6795C41.6789 54.4074 41.6978 54.1188 41.8056 53.8586C41.9135 53.5984 42.1043 53.381 42.3483 53.2403L54.3993 46.2823C54.693 46.1127 54.9073 45.8333 54.9951 45.5057C55.0828 45.1781 55.0369 44.829 54.8673 44.5353L31.4673 4.00929C31.2976 3.71535 31.0182 3.50082 30.6904 3.41287C30.3626 3.32492 30.0133 3.37075 29.7193 3.54028L3.1773 18.8653C3.03179 18.9492 2.90423 19.0609 2.80191 19.1942C2.69959 19.3274 2.62451 19.4794 2.58096 19.6416C2.5374 19.8039 2.52624 19.9731 2.54809 20.1396C2.56994 20.3062 2.62438 20.4668 2.7083 20.6123L21.8163 53.7123C21.9276 53.9065 21.986 54.1265 21.9856 54.3504C21.9853 54.5743 21.9261 54.7941 21.8142 54.988C21.7022 55.1818 21.5414 55.3429 21.3476 55.4551C21.1539 55.5673 20.9342 55.6266 20.7103 55.6273H1.1543M35.1393 33.5583L21.7393 10.3033" stroke="#FFA665" stroke-width="5.074"/>
</svg>
