<svg width="410" height="98" viewBox="0 0 410 98" fill="none" xmlns="http://www.w3.org/2000/svg">
  <path d="M75.1401 89.1034L90.6192 79.9359C91.8966 79.1636 92.824 77.9255 93.2061 76.4825C93.5882 75.0396 93.3949 73.5047 92.6672 72.2015L54.1973 3.85149C53.832 3.19667 53.3394 2.6216 52.7484 2.16016C52.1574 1.69872 51.48 1.36024 50.7562 1.16467C50.0323 0.969111 49.2767 0.92042 48.5337 1.02147C47.7908 1.12252 47.0755 1.37127 46.4302 1.75305L2.78623 27.5937C1.50594 28.3651 0.575821 29.6042 0.19253 31.049C-0.190761 32.4937 0.002821 34.0309 0.732343 35.3355L30.9956 89.1034H12.7884C11.8482 89.1034 10.9465 89.4769 10.2817 90.1417C9.61691 90.8065 9.24342 91.7081 9.24342 92.6483C9.24342 93.5885 9.61691 94.4902 10.2817 95.155C10.9465 95.8198 11.8482 96.1932 12.7884 96.1932H33.4163C34.4022 96.1968 35.3714 95.9394 36.2257 95.4472C37.0799 94.955 37.7887 94.2456 38.28 93.3909C38.7843 92.5244 39.0538 91.5414 39.0618 90.5389C39.0699 89.5364 38.8163 88.5492 38.3261 87.6747L7.55933 33.0084L32.2654 18.3772L54.0517 57.1664C54.5176 57.9755 55.2839 58.5681 56.1841 58.8155C57.0844 59.063 58.0459 58.9453 58.8599 58.4881C59.6739 58.0308 60.2746 57.2709 60.5317 56.3733C60.7887 55.4758 60.6813 54.5131 60.2327 53.6943L38.3676 14.764L48.7455 8.61864L85.8402 74.5272L67.1904 85.5718C66.1062 86.2064 65.2638 87.1834 64.7957 88.3491C64.3277 89.5148 64.2605 90.8031 64.6048 92.0112C64.9198 93.2131 65.6255 94.2761 66.6108 95.0329C67.5962 95.7897 68.8053 96.1974 70.0477 96.1918H94.3053C95.2454 96.1918 96.1471 95.8183 96.8119 95.1535C97.4767 94.4887 97.8502 93.587 97.8502 92.6468C97.8502 91.7067 97.4767 90.805 96.8119 90.1402C96.1471 89.4754 95.2454 89.1019 94.3053 89.1019L75.1401 89.1034Z" fill="#FFA665"/>
  <path d="M220.628 55.5209C225.856 55.7584 230.816 57.9074 234.564 61.56C238.312 65.2127 240.589 70.1145 240.962 75.335C241.159 78.3087 240.723 81.2904 239.685 84.0837C238.696 86.7625 237.167 89.2092 235.192 91.2716C233.244 93.4303 230.856 95.1467 228.189 96.3051C225.521 97.4635 222.637 98.037 219.729 97.9872C215.08 97.9216 210.561 96.4445 206.771 93.7517C204.678 92.2371 202.988 90.2329 201.849 87.9143C200.71 85.5957 200.156 83.0333 200.236 80.4512V42.8308C200.236 42.4224 200.423 42.2189 200.851 41.913L207.128 38.0146C207.252 37.9515 207.39 37.9209 207.528 37.9258C207.667 37.9307 207.802 37.9708 207.921 38.0425C208.04 38.1141 208.139 38.2149 208.208 38.3352C208.277 38.4556 208.315 38.5916 208.317 38.7304V59.6376C209.96 58.1182 211.907 56.9655 214.03 56.2558C216.152 55.546 218.401 55.2955 220.628 55.5209ZM220.154 90.1236C223.53 89.8935 226.714 88.4725 229.139 86.1139C230.39 84.9018 231.38 83.4464 232.046 81.8373C232.713 80.2281 233.044 78.4994 233.017 76.7578C233.023 75.0111 232.684 73.2805 232.018 71.6656C231.352 70.0507 230.374 68.5834 229.139 67.3483C227.904 66.1132 226.437 65.1348 224.822 64.4692C223.207 63.8037 221.476 63.4643 219.729 63.4706C218.179 63.4058 216.635 63.6894 215.209 64.3006C213.783 64.9118 212.512 65.8349 211.49 67.0022C208.937 69.5268 208.418 72.3084 208.322 75.9024C208.207 80.2938 208.438 84.5441 212.332 87.7103C214.63 89.298 217.361 90.1405 220.154 90.1236Z" fill="#080808"/>
  <path d="M270.178 55.5224C272.884 55.5009 275.565 56.0446 278.048 57.1186C280.532 58.1927 282.764 59.7734 284.602 61.7598C286.524 63.681 288.042 65.9682 289.065 68.4861C290.089 71.004 290.597 73.7015 290.56 76.4191V79.1146C290.569 79.1936 290.562 79.2737 290.537 79.3494C290.513 79.425 290.472 79.4945 290.418 79.553C290.364 79.6114 290.298 79.6575 290.225 79.688C290.151 79.7184 290.072 79.7326 289.993 79.7294L258.782 82.4234C259.851 84.6906 261.545 86.6064 263.663 87.9464C265.782 89.2863 268.239 89.9952 270.746 89.9899C272.518 89.9712 274.277 89.6868 275.964 89.1464C276.055 89.112 276.153 89.0972 276.25 89.103C276.347 89.1087 276.442 89.1348 276.528 89.1797C276.614 89.2245 276.69 89.2871 276.751 89.3632C276.811 89.4394 276.855 89.5274 276.879 89.6216C277.51 91.9725 277.889 93.2542 278.378 95.2561C278.566 96.0269 278.75 96.4353 277.951 96.7219C275.636 97.5402 273.201 97.9659 270.746 97.9812C265.119 97.9613 259.729 95.7174 255.751 91.7391C251.773 87.7607 249.529 82.3706 249.509 76.7444C249.442 73.9481 249.94 71.167 250.972 68.5673C252.003 65.9675 253.548 63.6022 255.515 61.6127C257.397 59.6289 259.675 58.0618 262.201 57.0128C264.727 55.9638 267.444 55.456 270.178 55.5224ZM282.142 72.4049C281.521 69.803 279.994 67.507 277.836 65.9269C275.581 64.2622 272.835 63.3968 270.033 63.4676C266.992 63.4124 264.046 64.5291 261.805 66.5863C259.502 68.6425 258.024 71.4656 257.647 74.5301L282.142 72.4049Z" fill="#080808"/>
  <path d="M371.37 97.3558C371.207 97.3558 371.05 97.291 370.935 97.1757C370.82 97.0604 370.755 96.9041 370.755 96.741V43.7795C370.722 43.5548 370.765 43.3256 370.876 43.1277C370.987 42.9297 371.161 42.7741 371.37 42.685L377.377 39.0881C378.344 38.5832 378.889 39.1727 378.889 39.9287V96.741C378.889 96.9041 378.824 97.0604 378.709 97.1757C378.593 97.291 378.437 97.3558 378.274 97.3558H371.37Z" fill="#080808"/>
  <path d="M317.255 55.353H308.086L308.06 42.7164C308.066 42.5932 308.042 42.4703 307.988 42.3592C307.934 42.2482 307.853 42.1525 307.753 42.0812C307.652 42.0099 307.535 41.9652 307.412 41.9514C307.29 41.9375 307.165 41.955 307.051 42.002L300.71 45.8009C300.515 45.9082 300.353 46.0683 300.245 46.2629C300.136 46.4575 300.084 46.6787 300.095 46.9014L300.143 85.8539C300.106 88.1618 300.659 90.4408 301.751 92.4745C302.78 94.3578 304.366 95.877 306.291 96.8243C309.02 98.039 312.073 98.3213 314.979 97.6278C315.508 97.5102 316.03 97.3614 316.541 97.1823C316.737 97.0694 316.956 96.9922 317.143 96.8659C317.645 96.5288 317.588 95.7254 317.471 95.2249C317.008 93.3254 316.807 92.522 316.179 90.186C316.156 90.0996 316.116 90.0187 316.061 89.9482C316.006 89.8776 315.938 89.8188 315.86 89.7753C315.782 89.7318 315.696 89.7044 315.607 89.6949C315.518 89.6853 315.428 89.6937 315.343 89.7197C314.3 90.2028 313.167 90.4603 312.018 90.4756C311.269 90.3518 310.547 90.1007 309.883 89.733C308.685 89.139 308.085 87.8464 308.086 85.8554V63.2983H317.255C317.419 63.2983 317.575 63.2335 317.69 63.1182C317.806 63.0029 317.87 62.8465 317.87 62.6835V55.9694C317.871 55.8885 317.855 55.8084 317.824 55.7336C317.793 55.6589 317.748 55.5909 317.691 55.5337C317.634 55.4764 317.566 55.431 317.491 55.4C317.416 55.369 317.336 55.353 317.255 55.353Z" fill="#080808"/>
  <path d="M409.385 55.353H400.216L400.191 42.7164C400.198 42.5932 400.173 42.4703 400.119 42.3592C400.066 42.2482 399.985 42.1525 399.884 42.0812C399.783 42.0099 399.666 41.9652 399.544 41.9514C399.421 41.9375 399.297 41.955 399.183 42.002L392.84 45.8009C392.645 45.9082 392.483 46.0683 392.375 46.2629C392.266 46.4575 392.214 46.6787 392.225 46.9014L392.273 85.8539C392.235 88.1617 392.788 90.4407 393.88 92.4745C394.908 94.3578 396.494 95.8771 398.419 96.8243C401.149 98.0392 404.202 98.3216 407.107 97.6278C407.637 97.5103 408.159 97.3615 408.671 97.1822C408.867 97.0694 409.084 96.9922 409.273 96.8659C409.774 96.5288 409.718 95.7254 409.599 95.2249C409.129 93.2943 408.928 92.4968 408.278 90.0746C408.243 89.9359 408.156 89.8162 408.034 89.7414C407.913 89.6667 407.766 89.6428 407.627 89.6751C406.532 90.1722 405.349 90.4449 404.147 90.477C403.399 90.3532 402.677 90.1021 402.013 89.7345C400.814 89.1405 400.215 87.8479 400.216 85.8569V63.2983H409.385C409.548 63.2983 409.705 63.2335 409.82 63.1182C409.935 63.0029 410 62.8465 410 62.6835V55.9694C410 55.8885 409.985 55.8084 409.954 55.7336C409.923 55.6589 409.878 55.5909 409.821 55.5337C409.764 55.4764 409.696 55.431 409.621 55.4C409.546 55.369 409.466 55.353 409.385 55.353Z" fill="#080808"/>
  <path d="M145.528 54.8498H136.361L136.336 42.2131C136.342 42.0901 136.317 41.9674 136.263 41.8566C136.209 41.7457 136.128 41.6503 136.028 41.5791C135.927 41.5078 135.81 41.4631 135.688 41.4491C135.565 41.4351 135.441 41.4522 135.327 41.4988L128.984 45.2977C128.789 45.405 128.628 45.5651 128.519 45.7597C128.41 45.9543 128.359 46.1755 128.37 46.3981L128.417 85.3507C128.38 87.6586 128.934 89.9376 130.026 91.9713C131.054 93.8547 132.64 95.374 134.565 96.3211C137.815 97.7249 141.475 97.8506 144.813 96.6731C145.009 96.5602 145.225 96.483 145.407 96.3568C145.909 96.0182 145.852 95.2162 145.735 94.7157C145.263 92.7851 145.064 91.9847 144.41 89.5506C144.377 89.4158 144.292 89.2994 144.174 89.2264C144.056 89.1534 143.914 89.1295 143.779 89.16C142.679 89.6588 141.49 89.9334 140.283 89.9679C139.535 89.844 138.813 89.5929 138.149 89.2253C136.95 88.6313 136.351 87.3388 136.352 85.3478V62.7936H145.521C145.684 62.7936 145.84 62.7288 145.956 62.6135C146.071 62.4982 146.136 62.3418 146.136 62.1788V55.4632C146.135 55.3016 146.072 55.1467 145.958 55.032C145.844 54.9172 145.69 54.8518 145.528 54.8498Z" fill="#080808"/>
  <path d="M358.001 91.5898C356.321 95.2194 351.876 96.9777 349.294 97.4337C344.659 98.252 339.394 98.3589 334.977 96.3941C332.559 95.3061 330.573 93.4415 329.335 91.0961C328.098 88.7507 327.679 86.059 328.146 83.4485C328.325 82.3885 328.65 81.3581 329.11 80.3863C332.598 73.0098 339.787 72.4484 346.931 71.8262C348.679 71.6776 350.364 71.4965 351.794 71.2945C351.536 67.6055 351.022 66.2556 349.931 65.1284C348.358 63.5052 345.553 63.2735 343.417 63.2186C340.3 62.9782 337.194 63.8172 334.622 65.5947C334.573 65.6553 334.51 65.7042 334.439 65.7377C334.368 65.7712 334.291 65.7886 334.212 65.7886C334.134 65.7886 334.057 65.7712 333.986 65.7377C333.915 65.7042 333.852 65.6553 333.803 65.5947L328.688 60.9137C328.613 60.8627 328.553 60.7943 328.51 60.7145C328.468 60.6346 328.446 60.5458 328.446 60.4555C328.446 60.3653 328.468 60.2764 328.51 60.1966C328.553 60.1168 328.613 60.0484 328.688 59.9974C328.914 59.7714 329.156 59.562 329.413 59.3707C329.746 59.0721 330.101 58.7981 330.474 58.5509C338.102 53.4392 351.523 53.4214 357.021 61.7216C357.492 62.4336 357.895 63.1884 358.225 63.9759C359.833 67.8105 359.324 72.5598 359.397 76.6899C359.486 81.5417 359.581 88.1845 358.001 91.5898ZM351.976 79.7952C351.976 79.7225 351.963 79.6503 351.935 79.583C351.908 79.5157 351.867 79.4546 351.816 79.4033C351.764 79.3519 351.703 79.3114 351.635 79.2841C351.568 79.2568 351.496 79.2432 351.423 79.2442C347.957 79.1052 344.485 79.3241 341.063 79.8977C339.307 80.1711 337.708 81.0673 336.559 82.4223C334.278 85.5841 336.808 89.3666 340.148 90.179C343.753 91.0552 351.287 90.8369 351.881 85.8722C352.022 83.8497 352.054 81.8212 351.979 79.7952H351.976Z" fill="#080808"/>
  <path d="M186.615 91.5898C184.934 95.2194 180.49 96.9777 177.908 97.4337C173.273 98.252 168.007 98.3589 163.591 96.3941C161.173 95.3061 159.187 93.4415 157.95 91.0961C156.712 88.7507 156.293 86.059 156.76 83.4485C156.939 82.3884 157.264 81.358 157.724 80.3863C161.212 73.0098 168.402 72.4484 175.545 71.8262C177.293 71.6776 178.98 71.4965 180.409 71.2945C180.152 67.6055 179.638 66.2556 178.545 65.1284C176.972 63.5052 174.165 63.2735 172.031 63.2186C168.914 62.9781 165.809 63.8171 163.237 65.5947C163.187 65.6553 163.124 65.7042 163.053 65.7377C162.982 65.7712 162.905 65.7886 162.827 65.7886C162.748 65.7886 162.671 65.7712 162.6 65.7377C162.529 65.7042 162.466 65.6553 162.417 65.5947L157.302 60.9137C157.228 60.8627 157.167 60.7943 157.125 60.7145C157.083 60.6346 157.061 60.5458 157.061 60.4555C157.061 60.3653 157.083 60.2764 157.125 60.1966C157.167 60.1168 157.228 60.0484 157.302 59.9974C157.528 59.7713 157.77 59.5619 158.027 59.3707C158.36 59.072 158.715 58.798 159.089 58.5509C166.716 53.4392 180.137 53.4214 185.635 61.7216C186.105 62.4338 186.508 63.1885 186.838 63.9759C188.446 67.8105 187.937 72.5598 188.009 76.6899C188.099 81.5417 188.188 88.1845 186.615 91.5898ZM180.59 79.7952C180.591 79.7223 180.577 79.65 180.55 79.5825C180.522 79.515 180.481 79.4537 180.43 79.4023C180.378 79.3509 180.317 79.3104 180.249 79.2832C180.181 79.2561 180.109 79.2428 180.036 79.2442C176.57 79.1053 173.099 79.3242 169.677 79.8977C167.921 80.171 166.323 81.0672 165.173 82.4223C162.893 85.5841 165.424 89.3666 168.764 90.179C172.367 91.0552 179.902 90.8369 180.496 85.8722C180.635 83.8496 180.666 81.8211 180.588 79.7952H180.59Z" fill="#080808"/>
</svg>  